<svg width="1024" height="1024" viewBox="0 0 1024 1024" fill="none" xmlns="http://www.w3.org/2000/svg">
<path fill-rule="evenodd" clip-rule="evenodd" d="M606 60.102C572.082 62.069 535.172 74.797 505.5 94.756C475.942 114.639 453.81 140.155 437.194 173.507C413.6 220.866 406.925 270.104 416.589 325.5C420.074 345.477 422.751 364.996 423.515 376C424.828 394.898 421.349 418.466 412.15 453C401.984 491.159 400.567 500.149 401.28 521.94C401.904 541.015 404.039 550.35 411.086 564.83C415.405 573.705 417.308 576.344 424.583 583.554L433.053 591.948L429.003 604.224C424.061 619.204 419.229 636.601 414.482 656.5C410.252 674.232 409.955 675.288 409.367 674.7C408.841 674.174 402.486 647.522 397.396 624.5C392.916 604.235 391.493 600.451 386.448 595.4C378.944 587.887 386.111 588.841 278 580.972C174.55 573.442 152.811 571.846 127.5 569.919C112.65 568.789 94.875 567.621 88 567.325C76.037 566.809 75.35 566.888 72 569.163C67.769 572.037 65.004 577.192 65.002 582.211C65.001 584.252 65.927 589.877 67.06 594.711C69.932 606.96 82.229 660.809 101.59 745.916C110.65 785.744 118.808 819.901 119.718 821.819C121.953 826.528 126.865 831.273 132.142 833.821C134.785 835.097 143.779 837.121 155 838.964C177.961 842.736 207.618 847.8 211.149 848.551C213.155 848.978 213.947 849.891 214.409 852.307C216.173 861.546 226.111 874.975 234.261 879.133C239.797 881.957 247.35 883.154 252.442 882.013C256.293 881.15 257.3 881.355 262.171 883.993C268.668 887.512 277.117 888.777 282.426 887.025C285.663 885.956 286.738 886.071 291.122 887.957C298.22 891.01 304.815 891.592 310.476 889.663C315.043 888.107 315.233 888.126 318.825 890.496C325.214 894.714 330.892 896.267 340 896.288C352.364 896.317 363.219 891.771 374.561 881.812L377.938 878.847L414.78 884.924C435.043 888.266 453.356 891 455.475 891C457.594 891 463.294 890.24 468.141 889.31C472.988 888.381 477.177 887.844 477.45 888.117C477.723 888.389 477.516 890.168 476.991 892.069C475.659 896.896 473 920.31 473 927.221C473 934.471 473.496 934.82 490.389 939.45C515.677 946.381 549.432 952.137 585.5 955.669C611.21 958.186 685.849 958.191 711 955.677C763.558 950.423 825.545 937.61 832.902 930.479L835.304 928.151L833.58 919.325C832.042 911.451 828.784 897.479 827.383 892.75C826.923 891.196 827.684 890.999 834.183 890.994C843.599 890.987 858.903 888.649 866.275 886.093C877.332 882.259 884.201 877.84 893.588 868.521C901.498 860.669 903.346 858.14 907.857 849C915.522 833.471 917.287 824.372 917.269 800.5C917.243 766.067 912.418 730.639 897.947 658.631L891.141 624.763L895.164 619.673C899.279 614.468 905.467 602.962 909.073 593.814C915.954 576.357 919.099 551.369 917.189 529.326C914.084 493.48 903.148 464.917 875.009 419.161C845.79 371.648 838.649 353.482 824.042 289.5C807.577 217.387 805.429 208.982 797.964 187.5C792.157 170.787 781.289 148.602 772.289 135.086C763.367 121.69 747.515 105.234 735.831 97.239C719.641 86.162 699.434 78.545 683.125 77.372C675.16 76.799 674.232 76.501 671 73.479C663.445 66.415 648.522 61.356 632.5 60.426C627.55 60.138 622.375 59.785 621 59.64C619.625 59.495 612.875 59.703 606 60.102ZM597.325 69.024C567.505 72.795 537.321 83.648 514.5 98.806C454.273 138.807 418.846 210.437 421.273 287.3C421.717 301.363 422.553 308.604 425.854 327C431.628 359.169 432.239 364.505 432.32 383.5C432.423 407.585 430.095 421.801 420.382 456.406C412.208 485.529 410.999 492.12 410.319 511.244C409.665 529.638 410.604 538.408 414.573 551C417.566 560.493 425.592 573.591 431.723 578.988L436.451 583.149L437.928 579.824C438.74 577.996 440.884 573.29 442.693 569.367L445.98 562.233L443.105 555.867C433.997 535.705 434.133 503.909 443.483 467.536C449.543 443.956 451.816 439.387 455.599 443.17C457.114 444.685 456.969 445.906 453.638 459.653C444.371 497.894 442.657 527.737 448.649 546.5C449.527 549.25 450.559 551.845 450.941 552.268C451.323 552.69 453.162 550.89 455.027 548.268C460.67 540.333 468.989 532.158 479 524.707C484.225 520.819 488.558 517.606 488.628 517.569C488.698 517.531 488.1 513.9 487.299 509.5C485.179 497.862 486.861 467.612 490.476 452.36C491.037 449.992 493.235 448.769 495.423 449.609C497.648 450.463 497.944 452.347 496.926 459.165C494.623 474.591 494.591 508.102 496.876 511.8C497.426 512.689 498.943 512.364 502.694 510.555C505.485 509.209 516.401 505.165 526.952 501.568C550.156 493.658 571.482 485.347 572.788 483.705C573.315 483.042 573.965 479.283 574.232 475.351L574.718 468.203L565.835 466.577C538.644 461.603 517.569 450.641 498.464 431.536C483.942 417.014 474.598 402.146 466.703 381C461.484 367.02 459.267 357.582 457.964 343.805C456.866 332.199 456.582 331.153 452.97 325.385C445.305 313.147 443.774 307.127 443.902 289.715L443.996 276.929L440.498 273.431C435.165 268.098 436.143 264.624 444.458 259.363C448.887 256.561 448.971 256.405 451.09 247.013C459.107 211.48 481.386 183.408 523.5 155.778C554.957 135.139 583.985 125.009 608 126.288C618.783 126.862 623.638 128.283 624.542 131.132C625.793 135.075 623.734 135.706 607.738 136.281C595.687 136.714 590.578 137.362 583.308 139.38C558.97 146.133 533.515 159.295 511.5 176.508C502.171 183.802 483.476 202.782 476.846 211.69C474.312 215.094 470.514 220.944 468.405 224.69C464.793 231.105 464.548 232.084 464.178 241.582L463.786 251.665L479.797 251.203C510.096 250.33 528.791 255.691 537.472 267.742C539.733 270.881 541.006 271.819 542.5 271.445C547.528 270.185 561.956 269.825 566.69 270.84L571.847 271.946L578.674 265.147C591.126 252.745 602.311 249.529 633 249.529C663.592 249.528 684.268 254.166 687.102 261.666C687.336 262.284 693.205 263.005 701.333 263.413C708.941 263.794 718.814 264.523 723.272 265.031C727.73 265.539 731.538 265.796 731.733 265.6C731.929 265.405 729.031 261.988 725.294 258.009C716.13 248.249 712.8 243.435 706.318 230.58C700.907 219.847 700.448 219.288 679.623 198.08C658.258 176.321 651.895 169.237 646.314 161C641.566 153.99 637.005 144.348 636.069 139.342C635.349 135.487 635.51 134.49 637.109 132.891C640.474 129.526 642.343 130.777 644.853 138.072C649.681 152.107 656.696 161.594 679.463 184.881C710.902 217.04 733.614 235.915 754.157 246.958C758.369 249.221 762.079 251.765 762.404 252.609C763.359 255.098 761.183 258 758.362 258C755.401 258 741.657 251.759 732.887 246.431C729.585 244.425 726.612 243.055 726.28 243.386C725.949 243.718 730.962 249.2 737.421 255.57C746.046 264.076 749.607 266.975 750.832 266.489C751.749 266.126 755.331 265.379 758.792 264.829C770.648 262.947 783.386 268.977 789.463 279.347C799.291 296.116 795.126 324.959 780.456 341.729C771.797 351.627 756.571 359.887 743.786 361.622L739.072 362.262L733.135 374.544C729.869 381.3 725.645 389.476 723.747 392.713C719.218 400.441 718.842 403.035 719.972 418.714C722.206 449.723 729.469 463.724 750.25 477.088C759.407 482.976 762.725 484.475 782.373 491.604C828.143 508.21 854.033 526.962 869.141 554.45C871.85 559.378 871.865 559.388 872.56 556.616C872.945 555.085 873.016 546.783 872.719 538.166C872.287 525.641 871.671 520.672 869.644 513.38C865.018 496.741 855.668 474.979 844.954 455.919C839.306 445.87 837.789 440.866 839.979 439.513C843.277 437.475 850.235 447.251 862.035 470.5C880.167 506.225 886.584 543.862 878.529 567.241C877.151 571.239 877.242 571.96 880.442 582.517C882.289 588.611 884.836 598.187 886.102 603.798C887.367 609.409 888.712 614 889.09 614C890.175 614 897.526 599.213 900.286 591.479C908.719 567.85 910.641 533.569 904.988 507.624C901.942 493.642 895.864 476.619 888.519 461.5C882.664 449.448 878.672 442.549 859.086 410.642C849.628 395.235 839.398 375.2 834.212 361.93C828.125 346.352 823.086 327.286 812.956 281.5C797.208 210.322 788.715 182.745 774.306 156C758.7 127.033 739.158 107.061 714.879 95.265C701.796 88.909 694.103 86.87 680.93 86.269L669.361 85.74L667.051 82.369C663.924 77.805 654.635 73.397 642.956 70.934C632.008 68.625 608.321 67.634 597.325 69.024ZM620.5 220.649C603.822 223.321 594.154 229.178 595.161 235.999C595.804 240.353 598.076 240.604 608.157 237.436C616.798 234.721 618.628 234.503 632.5 234.543C644.482 234.578 649.257 235.026 656.23 236.77C665.856 239.177 668 238.936 668 235.444C668 233.021 664.318 229.66 658.372 226.655C649.86 222.354 629.756 219.166 620.5 220.649ZM489 227.313C478.779 230.265 471 236.361 471 241.418C471 244.871 473.857 245.101 480.602 242.191C488.691 238.702 502.657 238.052 516.184 240.534C526.919 242.503 529 241.983 529 237.33C529 234.156 525.011 230.554 519.179 228.461C512.991 226.24 495.075 225.559 489 227.313ZM621.5 259.01C604.216 260.534 594.257 263.886 588.369 270.162C583.698 275.14 582.646 279.638 583.276 291.92C584.779 321.198 598.12 335.54 625.735 337.57C645.458 339.02 660.065 332.86 666.781 320.26C672.32 309.867 674.408 300.278 674.457 285C674.508 269.011 673.424 265.946 666.679 262.999C658.878 259.591 636.912 257.652 621.5 259.01ZM472 260.951C462.198 262.413 462.999 260.15 463.007 286.357C463.011 299.086 463.31 312.633 463.672 316.462C464.294 323.058 464.571 323.667 468.95 328.045C474.823 333.918 480.75 336.045 493.147 336.727C515.314 337.946 528.366 328.187 533.023 306.912C534.873 298.46 533.915 282.525 531.25 277.405C527.452 270.111 520.876 265.403 510.472 262.528C503.6 260.63 480.504 259.683 472 260.951ZM692.362 273.74L686.223 274.09L685.569 280.795C684.046 296.392 681.827 310.191 679.974 315.576C672.495 337.315 654.062 348.028 626.5 346.655C591.584 344.917 577.12 330.068 573.44 292.186C573.049 288.163 572.119 284.262 571.374 283.516C569.462 281.605 557.853 280.565 550.145 281.615L543.642 282.5L543.407 295C543.153 308.459 541.969 314.113 537.493 323.25C532.13 334.196 520.718 342.642 508.114 344.995C495.487 347.351 480.178 345.683 470.873 340.935C468.636 339.794 466.575 339.091 466.293 339.374C465.348 340.319 470.154 361.374 473.975 373.028C480.916 394.198 490.149 409.353 505.836 425.319C523.262 443.055 546.434 455.186 570.211 459.019C581.145 460.781 607.87 459.757 619.13 457.143C638.143 452.729 654.292 445.75 670.311 435.025C698.887 415.89 717.74 392.125 730.212 359.518L732.5 353.536L740.5 352.38C759.269 349.669 772.071 340.646 780.056 324.5C786.24 311.995 787.462 301.877 784.095 291.058C780.54 279.635 773.776 274.067 763.399 274.022C754.17 273.982 747.296 277.54 743.957 284.084C742.516 286.909 741.324 288 739.68 288C734.791 288 733.654 283.721 737.058 278.137C738.185 276.288 738.971 274.661 738.804 274.523C738.24 274.057 698.552 273.388 692.362 273.74ZM503.398 282.904C498.026 286.171 494.716 298.343 496.991 306.467C499.534 315.549 507.544 318.433 513.065 312.253C517.889 306.855 519.043 299.875 516.518 291.373C514.059 283.093 508.737 279.657 503.398 282.904ZM621.615 284.088C618.001 286.931 616.156 290.82 615.412 297.164C613.885 310.179 621.362 318.769 630.459 314.452C636.996 311.351 639.56 301.879 636.611 291.733C633.991 282.72 627.537 279.43 621.615 284.088ZM453.07 292.25C453.109 297.337 453.528 302.4 454.002 303.5C454.538 304.747 454.794 301.264 454.681 294.253C454.582 288.067 454.163 283.005 453.75 283.003C453.337 283.001 453.032 287.163 453.07 292.25ZM759.648 291.027C748.639 294.327 740.071 309.495 740.903 324.215C741.035 326.555 744.564 328.344 746.696 327.151C747.716 326.58 749.081 323.18 750.207 318.407C752.799 307.425 756.794 301.51 763.144 299.255C766.653 298.009 768.252 296.843 768.655 295.237C769.778 290.764 766.163 289.074 759.648 291.027ZM551.143 306.327C550.537 307.058 549.147 310.545 548.053 314.077C546.178 320.133 543.952 324.189 536.25 335.584C531.075 343.24 532.336 349.368 540.669 357.049C548.511 364.277 559.001 367.427 562.749 363.68C564.949 361.48 563.502 358.866 559.396 357.624C552.486 355.533 548.708 353.419 545.465 349.829C543.559 347.72 542 345.231 542 344.299C542 343.366 544.042 339.56 546.538 335.84C554.987 323.247 559.166 310.315 556.015 306.518C554.462 304.647 552.598 304.574 551.143 306.327ZM757.081 380.849C756.355 382.204 756.333 385.267 757.009 390.66C760.492 418.43 769.872 443.952 785.438 468.011C798.993 488.96 806.284 496.067 809.587 491.55C811.288 489.225 810.665 487.885 803.519 478.5C784.239 453.179 772.026 426.07 766.352 396C764.951 388.575 763.465 381.825 763.05 381C761.883 378.68 758.29 378.589 757.081 380.849ZM605.106 389.489C595.363 395.936 586.574 398.968 575.46 399.715C565.521 400.383 558.84 399.029 548.711 394.291C541.455 390.897 540.81 390.762 539.263 392.309C534.818 396.754 544.689 404.44 558.929 407.621C567.693 409.579 582.256 409.044 591 406.443C602.703 402.962 619 392.203 619 387.957C619 386.225 616.339 384 614.266 384C613.791 384 609.669 386.47 605.106 389.489ZM703.997 418.59C694.395 428.466 676.869 442.986 665.5 450.485C636.347 469.713 618.72 476.64 596.5 477.602L586.5 478.034L586.783 481.231C587.419 488.426 592.169 493.05 601.5 495.557C609.722 497.766 633.488 498.596 644.123 497.046C658.814 494.904 678.391 487.712 692.352 479.329C701.466 473.857 712.69 465.245 715.076 461.893L717.174 458.947L715.015 450.723C713.828 446.201 712.1 435.848 711.176 427.718L709.495 412.936L703.997 418.59ZM77.825 576.041C74.822 576.75 72.846 580.706 73.6 584.5C79.056 611.959 126.28 814.629 128.014 818.027C130.04 821.999 133.799 825.213 138.518 827.007C140.046 827.588 155.967 830.535 173.898 833.557C191.829 836.578 207.681 839.287 209.125 839.577L211.75 840.104L212.196 828.302C212.56 818.643 213.044 815.721 214.861 812.211C219.847 802.576 231.424 800.437 239.914 807.581C242.644 809.878 242.945 809.921 246.357 808.495C248.325 807.673 251.188 807.01 252.718 807.022C257.53 807.06 263.682 810.562 266.549 814.895C268.767 818.246 269.545 818.779 271.05 817.973C273.444 816.692 279.163 816.734 282.685 818.06C286.801 819.609 292.401 825.451 294.916 830.821L297.112 835.508L303.887 835.504C313.245 835.498 317.093 838.283 325.59 851.211C329.156 856.637 333.07 861.51 334.287 862.04C338.042 863.674 450.584 882 456.865 882C460.118 882 466.992 881.137 472.14 880.081C477.288 879.026 501.75 874.504 526.5 870.032C618.667 853.38 622.218 852.627 625.457 849.047C628.163 846.058 626.773 844.431 620.422 843.156C614.963 842.06 612.401 842.422 571.58 850.072C547.886 854.512 512.341 861.262 492.592 865.072C472.842 868.883 455.362 872 453.746 872C450.348 872 445.858 869.603 444.158 866.882C443.511 865.845 433.335 822.585 421.545 770.748C387.238 619.904 385.094 610.699 383.323 606.687C381.225 601.934 377.033 598.332 372.205 597.132C370.167 596.625 357.025 595.47 343 594.564C320.062 593.082 286.667 590.653 156.5 580.999C74.974 574.952 80.865 575.324 77.825 576.041ZM480.65 598.189C479.054 600.686 464.471 645.411 460.984 658.5C457.926 669.982 457.148 694.165 459.44 706.5C462.465 722.78 472.359 753.995 474.736 754.76C475.415 754.978 476.502 753.992 477.151 752.567C478.523 749.557 478.091 747.382 472.576 729.5C465.723 707.28 463.518 691.83 465.065 676.877C466.285 665.092 467.396 660.837 477.622 628.811C482.393 613.87 486.003 600.888 485.822 599.32C485.411 595.742 482.605 595.129 480.65 598.189ZM765.701 628.632C764.325 630.008 765.047 650.78 767.051 667.5C768.172 676.85 771.98 703.832 775.513 727.461C780.083 758.024 781.614 770.621 780.818 771.112C778.674 772.438 748.322 773.273 724 772.675C699.549 772.075 685.056 770.994 673.261 768.89C665.733 767.548 662 768.254 662 771.019C662 772.109 662.165 773 662.366 773C662.568 773 668.536 774.093 675.628 775.43C682.721 776.766 696.124 778.397 705.413 779.053C726.884 780.571 768.675 779.813 792.5 777.475C813.992 775.366 825.165 776.167 834.839 780.508C841.255 783.388 845.29 783.495 845.804 780.799C846.204 778.696 839.137 774.93 829.929 772.338C824.855 770.911 819.863 770.53 806.252 770.532L789.003 770.534L788.526 767.517C786.983 757.774 779.432 706.511 776.492 685.823C774.591 672.445 772.536 654.75 771.926 646.5C771.317 638.25 770.473 630.825 770.052 630C769.195 628.322 766.773 627.56 765.701 628.632ZM531.84 735.075C510.802 738.163 483.583 757.781 467.383 781.532C458.577 794.443 456.554 798.726 457.884 801.645C458.661 803.351 459.778 804 461.934 804C464.478 804 465.787 802.848 470.954 796.06C477.932 786.893 492.073 772.273 499.88 766.154C514.121 754.991 528.573 749.021 543.23 748.248C551.779 747.797 553.041 747.942 553.617 749.445C554.714 752.303 551.827 753.948 542.982 755.503C530.577 757.684 523.14 760.476 513.331 766.634C498.345 776.043 481.986 792.248 476.401 803.217C473.471 808.973 473.437 810.015 476.073 813.365C479.948 818.292 482.03 817.221 496.888 802.666C510.751 789.086 517.802 783.64 528.5 778.252C540.953 771.979 560.151 768.068 562.803 771.262C563.79 772.452 563.684 773.165 562.265 774.904C560.971 776.49 557.998 777.578 551.128 778.981C534.816 782.311 518.421 791.727 505.207 805.354C497.041 813.776 495.52 817.383 498.96 820.169C502.243 822.827 504.883 822.45 511.559 818.365C526.329 809.329 528.943 807.966 536.025 805.608C545.277 802.526 555.391 801.384 559.458 802.961C561.084 803.592 570.534 809.113 580.458 815.229C610.42 833.696 616.975 835.908 644.162 836.731L661.824 837.265L663.802 833.382C669.282 822.624 671.566 803.897 668.629 793.797C666.524 786.555 662.862 782.922 654.84 780.117C637.042 773.893 621.243 766.88 599.5 755.552C574.049 742.291 563.05 737.709 551.162 735.416C543.154 733.871 540.375 733.822 531.84 735.075ZM439.283 800.804C438.346 801.4 438.525 803.527 440.061 810.042L442.056 818.506L469.278 823.892C484.25 826.854 502.35 830.345 509.5 831.649C516.65 832.954 523.513 834.457 524.75 834.989C527.889 836.34 527.618 839.514 524.25 840.841C522.737 841.436 506.65 844.209 488.5 847.001C446.427 853.475 450 852.685 450 855.514C450 856.81 450.439 859.024 450.975 860.435C452.339 864.023 454.44 863.873 484.734 858.033C520.499 851.137 582.023 839.484 590.75 837.952C594.737 837.252 598 836.414 597.999 836.09C597.998 835.765 594.468 833.595 590.154 831.266C581.973 826.849 575.266 824.973 546.55 819.064L531.599 815.988L523.55 820.792C511.565 827.943 507.585 829.304 501.039 828.486C496.636 827.936 494.945 827.162 492.512 824.581C489.564 821.455 489.378 821.403 486.056 822.759C479.901 825.27 471.047 821.72 468.529 815.73C467.285 812.772 466.789 812.498 462.636 812.472C457.434 812.441 454.052 809.93 450.882 803.75C449.116 800.306 448.615 800.001 444.73 800.015C442.403 800.024 439.952 800.379 439.283 800.804ZM225.311 811.952C221.125 814.504 220.013 818.737 220.006 832.145C220 842.813 221.92 852.026 225.668 859.31C227.923 863.693 234.003 869.961 237.955 871.977C241.465 873.768 251 875.753 251 874.693C251 874.4 249.417 871.042 247.481 867.233C243.198 858.801 239.453 844.439 238.557 833C237.491 819.407 236.214 814.314 233.298 812.02C230.122 809.522 229.308 809.515 225.311 811.952ZM248.766 815.969C247.389 817.053 245.995 819.274 245.669 820.906C244.849 825.003 246.548 838.892 249.044 848.5C252.915 863.4 258.097 872.214 265.554 876.585C269.737 879.036 280.65 881.185 279.877 879.405C279.661 878.907 277.163 873.775 274.326 868C268.776 856.703 266.921 850.308 264.518 834.191C262.793 822.624 260.414 816.965 256.533 815.197C252.934 813.557 251.673 813.683 248.766 815.969ZM274.09 825.65C271.905 827.18 271.776 827.776 272.307 833.9C272.995 841.837 277.032 856.214 280.935 864.623C284.443 872.183 290.217 878.728 295.5 881.134C299.786 883.086 306.508 883.605 307.465 882.057C307.786 881.538 306.4 878.537 304.385 875.388C300.042 868.598 296.76 860.802 293.034 848.423C289.549 836.845 284.508 827.314 280.876 825.436C277.376 823.626 276.96 823.639 274.09 825.65ZM301.515 843.983C299.785 845.895 299.801 846.193 301.973 852.233C306.003 863.442 311.195 872.259 317.543 878.668C322.865 884.042 324.589 885.121 330.933 887.048C337.395 889.011 338.951 889.138 344.751 888.177C353.447 886.736 367 879.962 367 877.056C367 876.617 364.687 875.951 361.86 875.576C359.033 875.201 355.433 874.637 353.86 874.322C351.673 873.885 351 874.124 351 875.34C351 876.214 350.074 877.425 348.941 878.032C347.271 878.926 345.672 878.567 340.468 876.132C331.967 872.154 325.224 865.657 318.445 854.913C311.054 843.2 305.481 839.601 301.515 843.983ZM647 849.449C647 854.386 654.618 858.153 686.5 868.982C722.608 881.247 745.813 887.49 771.5 891.852C796.262 896.056 813.171 897.072 816.559 894.561C818.348 893.235 818.373 892.994 816.883 891.48C815.705 890.283 812.178 889.583 803.883 888.9C781.06 887.021 757.454 882.864 733.421 876.494C714.518 871.483 664.256 854.744 655.572 850.567C651.493 848.605 647.896 847 647.578 847C647.26 847 647 848.102 647 849.449Z" fill="black"/>
</svg>
