<svg width="853" height="899" viewBox="0 0 853 899" fill="none" xmlns="http://www.w3.org/2000/svg">
<path fill-rule="evenodd" clip-rule="evenodd" d="M541 1.102C507.082 3.069 470.172 15.797 440.5 35.756C410.942 55.639 388.81 81.155 372.194 114.507C348.6 161.866 341.925 211.104 351.589 266.5C355.074 286.477 357.751 305.996 358.515 317C359.828 335.898 356.349 359.466 347.15 394C336.984 432.159 335.567 441.149 336.28 462.94C336.904 482.015 339.039 491.35 346.086 505.83C350.405 514.705 352.308 517.344 359.583 524.554L368.053 532.948L364.003 545.224C359.061 560.204 354.229 577.601 349.482 597.5C345.252 615.232 344.955 616.288 344.367 615.7C343.841 615.174 337.486 588.522 332.396 565.5C327.916 545.235 326.493 541.451 321.448 536.4C313.944 528.887 321.111 529.841 213 521.972C109.55 514.442 87.811 512.846 62.5 510.919C47.65 509.789 29.875 508.621 23 508.325C11.037 507.809 10.35 507.888 6.99996 510.163C2.76896 513.037 0.00395393 518.192 0.00195393 523.211C0.000953934 525.252 0.926952 530.877 2.05995 535.711C4.93195 547.96 17.229 601.809 36.59 686.916C45.65 726.744 53.808 760.901 54.718 762.819C56.953 767.528 61.865 772.273 67.142 774.821C69.785 776.097 78.779 778.121 90 779.964C112.961 783.736 142.618 788.8 146.149 789.551C148.155 789.978 148.947 790.891 149.409 793.307C151.173 802.546 161.111 815.975 169.261 820.133C174.797 822.957 182.35 824.154 187.442 823.013C191.293 822.15 192.3 822.355 197.171 824.993C203.668 828.512 212.117 829.777 217.426 828.025C220.663 826.956 221.738 827.071 226.122 828.957C233.22 832.01 239.815 832.592 245.476 830.663C250.043 829.107 250.233 829.126 253.825 831.496C260.214 835.714 265.892 837.267 275 837.288C287.364 837.317 298.219 832.771 309.561 822.812L312.938 819.847L349.78 825.924C370.043 829.266 388.356 832 390.475 832C392.594 832 398.294 831.24 403.141 830.31C407.988 829.381 412.177 828.844 412.45 829.117C412.723 829.389 412.516 831.168 411.991 833.069C410.659 837.896 408 861.31 408 868.221C408 875.471 408.496 875.82 425.389 880.45C450.677 887.381 484.432 893.137 520.5 896.669C546.21 899.186 620.849 899.191 646 896.677C698.558 891.423 760.545 878.61 767.902 871.479L770.304 869.151L768.58 860.325C767.042 852.451 763.784 838.479 762.383 833.75C761.923 832.196 762.684 831.999 769.183 831.994C778.599 831.987 793.903 829.649 801.275 827.093C812.332 823.259 819.201 818.84 828.588 809.521C836.498 801.669 838.346 799.14 842.857 790C850.522 774.471 852.287 765.372 852.269 741.5C852.243 707.067 847.418 671.639 832.947 599.631L826.141 565.763L830.164 560.673C834.279 555.468 840.467 543.962 844.073 534.814C850.954 517.357 854.099 492.369 852.189 470.326C849.084 434.48 838.148 405.917 810.009 360.161C780.79 312.648 773.649 294.482 759.042 230.5C742.577 158.387 740.429 149.982 732.964 128.5C727.157 111.787 716.289 89.602 707.289 76.086C698.367 62.69 682.515 46.234 670.831 38.239C654.641 27.162 634.434 19.545 618.125 18.372C610.16 17.799 609.232 17.501 606 14.479C598.445 7.41499 583.522 2.35599 567.5 1.42599C562.55 1.13799 557.375 0.784995 556 0.639995C554.625 0.494995 547.875 0.702996 541 1.102ZM532.325 10.024C502.505 13.795 472.321 24.648 449.5 39.806C389.273 79.807 353.846 151.437 356.273 228.3C356.717 242.363 357.553 249.604 360.854 268C366.628 300.169 367.239 305.505 367.32 324.5C367.423 348.585 365.095 362.801 355.382 397.406C347.208 426.529 345.999 433.12 345.319 452.244C344.665 470.638 345.604 479.408 349.573 492C352.566 501.493 360.592 514.591 366.723 519.988L371.451 524.149L372.928 520.824C373.74 518.996 375.884 514.29 377.693 510.367L380.98 503.233L378.105 496.867C368.997 476.705 369.133 444.909 378.483 408.536C384.543 384.956 386.816 380.387 390.599 384.17C392.114 385.685 391.969 386.906 388.638 400.653C379.371 438.894 377.657 468.737 383.649 487.5C384.527 490.25 385.559 492.845 385.941 493.268C386.323 493.69 388.162 491.89 390.027 489.268C395.67 481.333 403.989 473.158 414 465.707C419.225 461.819 423.558 458.606 423.628 458.569C423.698 458.531 423.1 454.9 422.299 450.5C420.179 438.862 421.861 408.612 425.476 393.36C426.037 390.992 428.235 389.769 430.423 390.609C432.648 391.463 432.944 393.347 431.926 400.165C429.623 415.591 429.591 449.102 431.876 452.8C432.426 453.689 433.943 453.364 437.694 451.555C440.485 450.209 451.401 446.165 461.952 442.568C485.156 434.658 506.482 426.347 507.788 424.705C508.315 424.042 508.965 420.283 509.232 416.351L509.718 409.203L500.835 407.577C473.644 402.603 452.569 391.641 433.464 372.536C418.942 358.014 409.598 343.146 401.703 322C396.484 308.02 394.267 298.582 392.964 284.805C391.866 273.199 391.582 272.153 387.97 266.385C380.305 254.147 378.774 248.127 378.902 230.715L378.996 217.929L375.498 214.431C370.165 209.098 371.143 205.624 379.458 200.363C383.887 197.561 383.971 197.405 386.09 188.013C394.107 152.48 416.386 124.408 458.5 96.778C489.957 76.139 518.985 66.009 543 67.288C553.783 67.862 558.638 69.283 559.542 72.132C560.793 76.075 558.734 76.706 542.738 77.281C530.687 77.714 525.578 78.362 518.308 80.38C493.97 87.133 468.515 100.295 446.5 117.508C437.171 124.802 418.476 143.782 411.846 152.69C409.312 156.094 405.514 161.944 403.405 165.69C399.793 172.105 399.548 173.084 399.178 182.582L398.786 192.665L414.797 192.203C445.096 191.33 463.791 196.691 472.472 208.742C474.733 211.881 476.006 212.819 477.5 212.445C482.528 211.185 496.956 210.825 501.69 211.84L506.847 212.946L513.674 206.147C526.126 193.745 537.311 190.529 568 190.529C598.592 190.528 619.268 195.166 622.102 202.666C622.336 203.284 628.205 204.005 636.333 204.413C643.941 204.794 653.814 205.523 658.272 206.031C662.73 206.539 666.538 206.796 666.733 206.6C666.929 206.405 664.031 202.988 660.294 199.009C651.13 189.249 647.8 184.435 641.318 171.58C635.907 160.847 635.448 160.288 614.623 139.08C593.258 117.321 586.895 110.237 581.314 102C576.566 94.99 572.005 85.348 571.069 80.342C570.349 76.487 570.51 75.49 572.109 73.891C575.474 70.526 577.343 71.777 579.853 79.072C584.681 93.107 591.696 102.594 614.463 125.881C645.902 158.04 668.614 176.915 689.157 187.958C693.369 190.221 697.079 192.765 697.404 193.609C698.359 196.098 696.183 199 693.362 199C690.401 199 676.657 192.759 667.887 187.431C664.585 185.425 661.612 184.055 661.28 184.386C660.949 184.718 665.962 190.2 672.421 196.57C681.046 205.076 684.607 207.975 685.832 207.489C686.749 207.126 690.331 206.379 693.792 205.829C705.648 203.947 718.386 209.977 724.463 220.347C734.291 237.116 730.126 265.959 715.456 282.729C706.797 292.627 691.571 300.887 678.786 302.622L674.072 303.262L668.135 315.544C664.869 322.3 660.645 330.476 658.747 333.713C654.218 341.441 653.842 344.035 654.972 359.714C657.206 390.723 664.469 404.724 685.25 418.088C694.407 423.976 697.725 425.475 717.373 432.604C763.143 449.21 789.033 467.962 804.141 495.45C806.85 500.378 806.865 500.388 807.56 497.616C807.945 496.085 808.016 487.783 807.719 479.166C807.287 466.641 806.671 461.672 804.644 454.38C800.018 437.741 790.668 415.979 779.954 396.919C774.306 386.87 772.789 381.866 774.979 380.513C778.277 378.475 785.235 388.251 797.035 411.5C815.167 447.225 821.584 484.862 813.529 508.241C812.151 512.239 812.242 512.96 815.442 523.517C817.289 529.611 819.836 539.187 821.102 544.798C822.367 550.409 823.712 555 824.09 555C825.175 555 832.526 540.213 835.286 532.479C843.719 508.85 845.641 474.569 839.988 448.624C836.942 434.642 830.864 417.619 823.519 402.5C817.664 390.448 813.672 383.549 794.086 351.642C784.628 336.235 774.398 316.2 769.212 302.93C763.125 287.352 758.086 268.286 747.956 222.5C732.208 151.322 723.715 123.745 709.306 97C693.7 68.033 674.158 48.061 649.879 36.265C636.796 29.909 629.103 27.87 615.93 27.269L604.361 26.74L602.051 23.369C598.924 18.805 589.635 14.397 577.956 11.934C567.008 9.62499 543.321 8.634 532.325 10.024ZM555.5 161.649C538.822 164.321 529.154 170.178 530.161 176.999C530.804 181.353 533.076 181.604 543.157 178.436C551.798 175.721 553.628 175.503 567.5 175.543C579.482 175.578 584.257 176.026 591.23 177.77C600.856 180.177 603 179.936 603 176.444C603 174.021 599.318 170.66 593.372 167.655C584.86 163.354 564.756 160.166 555.5 161.649ZM424 168.313C413.779 171.265 406 177.361 406 182.418C406 185.871 408.857 186.101 415.602 183.191C423.691 179.702 437.657 179.052 451.184 181.534C461.919 183.503 464 182.983 464 178.33C464 175.156 460.011 171.554 454.179 169.461C447.991 167.24 430.075 166.559 424 168.313ZM556.5 200.01C539.216 201.534 529.257 204.886 523.369 211.162C518.698 216.14 517.646 220.638 518.276 232.92C519.779 262.198 533.12 276.54 560.735 278.57C580.458 280.02 595.065 273.86 601.781 261.26C607.32 250.867 609.408 241.278 609.457 226C609.508 210.011 608.424 206.946 601.679 203.999C593.878 200.591 571.912 198.652 556.5 200.01ZM407 201.951C397.198 203.413 397.999 201.15 398.007 227.357C398.011 240.086 398.31 253.633 398.672 257.462C399.294 264.058 399.571 264.667 403.95 269.045C409.823 274.918 415.75 277.045 428.147 277.727C450.314 278.946 463.366 269.187 468.023 247.912C469.873 239.46 468.915 223.525 466.25 218.405C462.452 211.111 455.876 206.403 445.472 203.528C438.6 201.63 415.504 200.683 407 201.951ZM627.362 214.74L621.223 215.09L620.569 221.795C619.046 237.392 616.827 251.191 614.974 256.576C607.495 278.315 589.062 289.028 561.5 287.655C526.584 285.917 512.12 271.068 508.44 233.186C508.049 229.163 507.119 225.262 506.374 224.516C504.462 222.605 492.853 221.565 485.145 222.615L478.642 223.5L478.407 236C478.153 249.459 476.969 255.113 472.493 264.25C467.13 275.196 455.718 283.642 443.114 285.995C430.487 288.351 415.178 286.683 405.873 281.935C403.636 280.794 401.575 280.091 401.293 280.374C400.348 281.319 405.154 302.374 408.975 314.028C415.916 335.198 425.149 350.353 440.836 366.319C458.262 384.055 481.434 396.186 505.211 400.019C516.145 401.781 542.87 400.757 554.13 398.143C573.143 393.729 589.292 386.75 605.311 376.025C633.887 356.89 652.74 333.125 665.212 300.518L667.5 294.536L675.5 293.38C694.269 290.669 707.071 281.646 715.056 265.5C721.24 252.995 722.462 242.877 719.095 232.058C715.54 220.635 708.776 215.067 698.399 215.022C689.17 214.982 682.296 218.54 678.957 225.084C677.516 227.909 676.324 229 674.68 229C669.791 229 668.654 224.721 672.058 219.137C673.185 217.288 673.971 215.661 673.804 215.523C673.24 215.057 633.552 214.388 627.362 214.74ZM438.398 223.904C433.026 227.171 429.716 239.343 431.991 247.467C434.534 256.549 442.544 259.433 448.065 253.253C452.889 247.855 454.043 240.875 451.518 232.373C449.059 224.093 443.737 220.657 438.398 223.904ZM556.615 225.088C553.001 227.931 551.156 231.82 550.412 238.164C548.885 251.179 556.362 259.769 565.459 255.452C571.996 252.351 574.56 242.879 571.611 232.733C568.991 223.72 562.537 220.43 556.615 225.088ZM388.07 233.25C388.109 238.337 388.528 243.4 389.002 244.5C389.538 245.747 389.794 242.264 389.681 235.253C389.582 229.067 389.163 224.005 388.75 224.003C388.337 224.001 388.032 228.163 388.07 233.25ZM694.648 232.027C683.639 235.327 675.071 250.495 675.903 265.215C676.035 267.555 679.564 269.344 681.696 268.151C682.716 267.58 684.081 264.18 685.207 259.407C687.799 248.425 691.794 242.51 698.144 240.255C701.653 239.009 703.252 237.843 703.655 236.237C704.778 231.764 701.163 230.074 694.648 232.027ZM486.143 247.327C485.537 248.058 484.147 251.545 483.053 255.077C481.178 261.133 478.952 265.189 471.25 276.584C466.075 284.24 467.336 290.368 475.669 298.049C483.511 305.277 494.001 308.427 497.749 304.68C499.949 302.48 498.502 299.866 494.396 298.624C487.486 296.533 483.708 294.419 480.465 290.829C478.559 288.72 477 286.231 477 285.299C477 284.366 479.042 280.56 481.538 276.84C489.987 264.247 494.166 251.315 491.015 247.518C489.462 245.647 487.598 245.574 486.143 247.327ZM692.081 321.849C691.355 323.204 691.333 326.267 692.009 331.66C695.492 359.43 704.872 384.952 720.438 409.011C733.993 429.96 741.284 437.067 744.587 432.55C746.288 430.225 745.665 428.885 738.519 419.5C719.239 394.179 707.026 367.07 701.352 337C699.951 329.575 698.465 322.825 698.05 322C696.883 319.68 693.29 319.589 692.081 321.849ZM540.106 330.489C530.363 336.936 521.574 339.968 510.46 340.715C500.521 341.383 493.84 340.029 483.711 335.291C476.455 331.897 475.81 331.762 474.263 333.309C469.818 337.754 479.689 345.44 493.929 348.621C502.693 350.579 517.256 350.044 526 347.443C537.703 343.962 554 333.203 554 328.957C554 327.225 551.339 325 549.266 325C548.791 325 544.669 327.47 540.106 330.489ZM638.997 359.59C629.395 369.466 611.869 383.986 600.5 391.485C571.347 410.713 553.72 417.64 531.5 418.602L521.5 419.034L521.783 422.231C522.419 429.426 527.169 434.05 536.5 436.557C544.722 438.766 568.488 439.596 579.123 438.046C593.814 435.904 613.391 428.712 627.352 420.329C636.466 414.857 647.69 406.245 650.076 402.893L652.174 399.947L650.015 391.723C648.828 387.201 647.1 376.848 646.176 368.718L644.495 353.936L638.997 359.59ZM12.825 517.041C9.82195 517.75 7.84595 521.706 8.59995 525.5C14.056 552.959 61.28 755.629 63.014 759.027C65.04 762.999 68.799 766.213 73.518 768.007C75.046 768.588 90.9669 771.535 108.898 774.557C126.829 777.578 142.681 780.287 144.125 780.577L146.75 781.104L147.196 769.302C147.56 759.643 148.044 756.721 149.861 753.211C154.847 743.576 166.424 741.437 174.914 748.581C177.644 750.878 177.945 750.921 181.357 749.495C183.325 748.673 186.188 748.01 187.718 748.022C192.53 748.06 198.682 751.562 201.549 755.895C203.767 759.246 204.545 759.779 206.05 758.973C208.444 757.692 214.163 757.734 217.685 759.06C221.801 760.609 227.401 766.451 229.916 771.821L232.112 776.508L238.887 776.504C248.245 776.498 252.093 779.283 260.59 792.211C264.156 797.637 268.07 802.51 269.287 803.04C273.042 804.674 385.584 823 391.865 823C395.118 823 401.992 822.137 407.14 821.081C412.288 820.026 436.75 815.504 461.5 811.032C553.667 794.38 557.218 793.627 560.457 790.047C563.163 787.058 561.773 785.431 555.422 784.156C549.963 783.06 547.401 783.422 506.58 791.072C482.886 795.512 447.341 802.262 427.592 806.072C407.842 809.883 390.362 813 388.746 813C385.348 813 380.858 810.603 379.158 807.882C378.511 806.845 368.335 763.585 356.545 711.748C322.238 560.904 320.094 551.699 318.323 547.687C316.225 542.934 312.033 539.332 307.205 538.132C305.167 537.625 292.025 536.47 278 535.564C255.062 534.082 221.667 531.653 91.5 521.999C9.97395 515.952 15.865 516.324 12.825 517.041ZM415.65 539.189C414.054 541.686 399.471 586.411 395.984 599.5C392.926 610.982 392.148 635.165 394.44 647.5C397.465 663.78 407.359 694.995 409.736 695.76C410.415 695.978 411.502 694.992 412.151 693.567C413.523 690.557 413.091 688.382 407.576 670.5C400.723 648.28 398.518 632.83 400.065 617.877C401.285 606.092 402.396 601.837 412.622 569.811C417.393 554.87 421.003 541.888 420.822 540.32C420.411 536.742 417.605 536.129 415.65 539.189ZM700.701 569.632C699.325 571.008 700.047 591.78 702.051 608.5C703.172 617.85 706.98 644.832 710.513 668.461C715.083 699.024 716.614 711.621 715.818 712.112C713.674 713.438 683.322 714.273 659 713.675C634.549 713.075 620.056 711.994 608.261 709.89C600.733 708.548 597 709.254 597 712.019C597 713.109 597.165 714 597.366 714C597.568 714 603.536 715.093 610.628 716.43C617.721 717.766 631.124 719.397 640.413 720.053C661.884 721.571 703.675 720.813 727.5 718.475C748.992 716.366 760.165 717.167 769.839 721.508C776.255 724.388 780.29 724.495 780.804 721.799C781.204 719.696 774.137 715.93 764.929 713.338C759.855 711.911 754.863 711.53 741.252 711.532L724.003 711.534L723.526 708.517C721.983 698.774 714.432 647.511 711.492 626.823C709.591 613.445 707.536 595.75 706.926 587.5C706.317 579.25 705.473 571.825 705.052 571C704.195 569.322 701.773 568.56 700.701 569.632ZM466.84 676.075C445.802 679.163 418.583 698.781 402.383 722.532C393.577 735.443 391.554 739.726 392.884 742.645C393.661 744.351 394.778 745 396.934 745C399.478 745 400.787 743.848 405.954 737.06C412.932 727.893 427.073 713.273 434.88 707.154C449.121 695.991 463.573 690.021 478.23 689.248C486.779 688.797 488.041 688.942 488.617 690.445C489.714 693.303 486.827 694.948 477.982 696.503C465.577 698.684 458.14 701.476 448.331 707.634C433.345 717.043 416.986 733.248 411.401 744.217C408.471 749.973 408.437 751.015 411.073 754.365C414.948 759.292 417.03 758.221 431.888 743.666C445.751 730.086 452.802 724.64 463.5 719.252C475.953 712.979 495.151 709.068 497.803 712.262C498.79 713.452 498.684 714.165 497.265 715.904C495.971 717.49 492.998 718.578 486.128 719.981C469.816 723.311 453.421 732.727 440.207 746.354C432.041 754.776 430.52 758.383 433.96 761.169C437.243 763.827 439.883 763.45 446.559 759.365C461.329 750.329 463.943 748.966 471.025 746.608C480.277 743.526 490.391 742.384 494.458 743.961C496.084 744.592 505.534 750.113 515.458 756.229C545.42 774.696 551.975 776.908 579.162 777.731L596.824 778.265L598.802 774.382C604.282 763.624 606.566 744.897 603.629 734.797C601.524 727.555 597.862 723.922 589.84 721.117C572.042 714.893 556.243 707.88 534.5 696.552C509.049 683.291 498.05 678.709 486.162 676.416C478.154 674.871 475.375 674.822 466.84 676.075ZM374.283 741.804C373.346 742.4 373.525 744.527 375.061 751.042L377.056 759.506L404.278 764.892C419.25 767.854 437.35 771.345 444.5 772.649C451.65 773.954 458.513 775.457 459.75 775.989C462.889 777.34 462.618 780.514 459.25 781.841C457.737 782.436 441.65 785.209 423.5 788.001C381.427 794.475 385 793.685 385 796.514C385 797.81 385.439 800.024 385.975 801.435C387.339 805.023 389.44 804.873 419.734 799.033C455.499 792.137 517.023 780.484 525.75 778.952C529.737 778.252 533 777.414 532.999 777.09C532.998 776.765 529.468 774.595 525.154 772.266C516.973 767.849 510.266 765.973 481.55 760.064L466.599 756.988L458.55 761.792C446.565 768.943 442.585 770.304 436.039 769.486C431.636 768.936 429.945 768.162 427.512 765.581C424.564 762.455 424.378 762.403 421.056 763.759C414.901 766.27 406.047 762.72 403.529 756.73C402.285 753.772 401.789 753.498 397.636 753.472C392.434 753.441 389.052 750.93 385.882 744.75C384.116 741.306 383.615 741.001 379.73 741.015C377.403 741.024 374.952 741.379 374.283 741.804ZM160.311 752.952C156.125 755.504 155.013 759.737 155.006 773.145C155 783.813 156.92 793.026 160.668 800.31C162.923 804.693 169.003 810.961 172.955 812.977C176.465 814.768 186 816.753 186 815.693C186 815.4 184.417 812.042 182.481 808.233C178.198 799.801 174.453 785.439 173.557 774C172.491 760.407 171.214 755.314 168.298 753.02C165.122 750.522 164.308 750.515 160.311 752.952ZM183.766 756.969C182.389 758.053 180.995 760.274 180.669 761.906C179.849 766.003 181.548 779.892 184.044 789.5C187.915 804.4 193.097 813.214 200.554 817.585C204.737 820.036 215.65 822.185 214.877 820.405C214.661 819.907 212.163 814.775 209.326 809C203.776 797.703 201.921 791.308 199.518 775.191C197.793 763.624 195.414 757.965 191.533 756.197C187.934 754.557 186.673 754.683 183.766 756.969ZM209.09 766.65C206.905 768.18 206.776 768.776 207.307 774.9C207.995 782.837 212.032 797.214 215.935 805.623C219.443 813.183 225.217 819.728 230.5 822.134C234.786 824.086 241.508 824.605 242.465 823.057C242.786 822.538 241.4 819.537 239.385 816.388C235.042 809.598 231.76 801.802 228.034 789.423C224.549 777.845 219.508 768.314 215.876 766.436C212.376 764.626 211.96 764.639 209.09 766.65ZM236.515 784.983C234.785 786.895 234.801 787.193 236.973 793.233C241.003 804.442 246.195 813.259 252.543 819.668C257.865 825.042 259.589 826.121 265.933 828.048C272.395 830.011 273.951 830.138 279.751 829.177C288.447 827.736 302 820.962 302 818.056C302 817.617 299.687 816.951 296.86 816.576C294.033 816.201 290.433 815.637 288.86 815.322C286.673 814.885 286 815.124 286 816.34C286 817.214 285.074 818.425 283.941 819.032C282.271 819.926 280.672 819.567 275.468 817.132C266.967 813.154 260.224 806.657 253.445 795.913C246.054 784.2 240.481 780.601 236.515 784.983ZM582 790.449C582 795.386 589.618 799.153 621.5 809.982C657.608 822.247 680.813 828.49 706.5 832.852C731.262 837.056 748.171 838.072 751.559 835.561C753.348 834.235 753.373 833.994 751.883 832.48C750.705 831.283 747.178 830.583 738.883 829.9C716.06 828.021 692.454 823.864 668.421 817.494C649.518 812.483 599.256 795.744 590.572 791.567C586.493 789.605 582.896 788 582.578 788C582.26 788 582 789.102 582 790.449Z" fill="#0B0D2C"/>
</svg>
